<svg id="svg" version="1.1" xmlns="http://www.w3.org/2000/svg" xmlns:xlink="http://www.w3.org/1999/xlink" width="100" height="60" viewBox="-140, 0, 700, 250">
<g id="svg">
<path id="path0" d="M281.158 44.166 C 280.662 44.220,279.215 44.438,277.942 44.652 C 276.669 44.866,274.759 45.148,273.698 45.278 C 266.271 46.189,254.465 50.418,245.663 55.321 C 245.170 55.595,244.633 55.820,244.469 55.820 C 244.078 55.820,237.803 60.063,235.498 61.886 C 230.506 65.834,225.695 70.547,222.521 74.598 C 221.801 75.518,220.706 76.907,220.088 77.685 C 212.795 86.870,206.104 102.216,204.385 113.698 C 204.163 115.183,203.820 117.441,203.623 118.714 C 202.725 124.516,202.887 134.799,203.977 141.205 C 204.256 142.841,204.593 144.817,204.726 145.595 C 205.449 149.807,208.204 158.543,210.080 162.572 C 212.130 166.978,212.989 168.650,214.981 172.119 C 216.065 174.008,218.888 178.221,219.974 179.572 C 220.590 180.338,221.603 181.659,222.226 182.508 C 224.089 185.048,232.622 193.356,235.973 195.893 C 238.965 198.158,243.719 201.415,244.032 201.415 C 244.120 201.415,246.460 202.525,249.234 203.881 C 256.237 207.306,257.430 207.812,260.965 208.865 C 261.814 209.118,262.971 209.520,263.537 209.759 C 264.103 209.997,265.318 210.347,266.238 210.537 C 267.158 210.726,268.894 211.113,270.096 211.398 C 284.860 214.889,303.006 213.662,317.042 208.224 C 317.891 207.895,318.875 207.547,319.228 207.450 C 321.975 206.698,333.635 200.323,337.206 197.622 C 338.000 197.021,339.749 195.700,341.093 194.686 C 345.764 191.162,353.928 182.395,357.546 177.017 C 360.497 172.631,362.829 168.582,364.607 164.759 C 365.133 163.627,365.735 162.365,365.943 161.955 C 367.417 159.057,370.308 149.538,371.069 145.080 C 372.656 135.776,372.605 136.328,372.598 128.617 C 372.592 122.253,372.518 120.879,372.036 118.199 C 371.731 116.502,371.407 114.418,371.316 113.569 C 371.225 112.720,370.883 111.042,370.555 109.839 C 370.227 108.637,369.879 107.190,369.782 106.624 C 369.484 104.885,367.417 98.838,366.134 95.949 C 357.424 76.332,343.867 61.936,325.659 52.967 C 319.794 50.078,319.983 50.158,315.241 48.566 C 314.392 48.281,313.119 47.843,312.412 47.592 C 310.310 46.848,304.651 45.574,301.479 45.131 C 299.852 44.903,297.363 44.556,295.949 44.358 C 293.584 44.027,283.646 43.899,281.158 44.166 " stroke="none" fill="#eb344c" fill-rule="evenodd"></path><path id="path1" d="M111.897 43.974 C 106.271 44.504,96.360 46.408,93.505 47.508 C 92.939 47.725,91.781 48.109,90.932 48.359 C 89.432 48.802,88.508 49.157,84.759 50.730 C 82.601 51.635,77.224 54.324,75.679 55.271 C 61.715 63.828,53.243 72.308,44.677 86.302 C 42.276 90.224,39.035 97.570,37.300 103.023 C 35.944 107.286,35.303 109.941,34.724 113.698 C 34.451 115.466,34.113 117.492,33.973 118.199 C 32.261 126.838,33.671 142.868,37.107 153.826 C 42.022 169.501,52.708 185.310,64.604 194.504 C 65.403 195.122,66.735 196.152,67.562 196.793 C 71.125 199.553,77.031 203.086,81.929 205.388 C 83.061 205.920,84.568 206.633,85.277 206.972 C 85.986 207.311,86.724 207.588,86.917 207.588 C 87.109 207.588,87.918 207.864,88.714 208.200 C 101.498 213.604,121.865 215.029,136.334 211.532 C 137.254 211.310,138.875 210.922,139.936 210.671 C 147.183 208.952,158.971 203.772,158.971 202.306 C 158.971 201.953,157.912 201.145,154.935 199.228 C 142.404 191.159,131.403 177.910,124.286 162.315 C 122.155 157.645,119.723 149.556,118.835 144.180 C 117.731 137.495,117.572 136.081,117.415 131.508 C 116.408 102.197,130.489 74.784,155.113 58.114 C 159.550 55.110,159.450 55.206,158.837 54.528 C 158.571 54.233,156.900 53.291,155.125 52.433 C 153.350 51.576,151.687 50.766,151.431 50.634 C 142.887 46.230,123.188 42.911,111.897 43.974 " stroke="none" fill="#0574fb" fill-rule="evenodd"></path><path id="path2" d="M0.000 128.617 L 0.000 257.235 200.000 257.235 L 400.000 257.235 400.000 128.617 L 400.000 0.000 200.000 0.000 L 0.000 0.000 0.000 128.617 M131.061 43.992 C 132.617 44.393,134.469 44.794,135.177 44.885 C 135.884 44.976,137.447 45.329,138.650 45.671 C 139.852 46.012,141.473 46.460,142.251 46.666 C 144.440 47.244,146.875 48.081,148.366 48.766 C 149.112 49.109,149.847 49.389,150.000 49.389 C 150.153 49.389,151.696 50.026,153.429 50.804 C 155.162 51.582,156.697 52.219,156.840 52.219 C 156.983 52.219,157.537 52.566,158.071 52.991 C 160.138 54.633,160.461 54.604,165.192 52.338 C 167.500 51.232,170.084 50.070,170.932 49.755 C 176.515 47.684,176.867 47.573,182.379 46.142 C 184.855 45.499,187.691 44.876,188.682 44.757 C 189.672 44.639,191.350 44.335,192.412 44.082 C 195.261 43.402,209.365 43.402,212.219 44.081 C 213.280 44.334,215.016 44.644,216.077 44.771 C 217.138 44.897,218.875 45.235,219.936 45.523 C 220.997 45.810,222.849 46.279,224.051 46.565 C 225.958 47.019,228.526 47.856,233.464 49.635 C 234.184 49.895,236.849 51.103,239.386 52.321 C 244.804 54.920,244.140 54.832,247.203 53.356 C 252.568 50.769,255.638 49.389,256.025 49.389 C 256.177 49.389,256.771 49.163,257.346 48.888 C 258.820 48.181,262.736 46.847,264.566 46.428 C 265.415 46.233,266.627 45.890,267.260 45.665 C 267.892 45.440,269.492 45.082,270.814 44.869 C 272.137 44.656,274.108 44.201,275.195 43.858 C 279.295 42.563,297.129 42.710,301.631 44.076 C 302.776 44.423,304.628 44.791,305.747 44.894 C 306.866 44.997,308.186 45.284,308.682 45.533 C 309.177 45.782,310.219 46.118,310.997 46.280 C 312.346 46.562,316.126 47.828,319.753 49.213 C 322.109 50.113,326.968 52.434,329.260 53.755 C 330.322 54.367,331.537 55.045,331.961 55.262 C 332.386 55.479,333.370 56.084,334.148 56.607 C 334.926 57.130,335.968 57.763,336.463 58.014 C 336.958 58.265,338.116 59.124,339.035 59.923 C 339.955 60.722,341.402 61.886,342.251 62.508 C 343.761 63.616,353.351 72.807,353.792 73.569 C 354.385 74.593,355.511 76.185,356.913 77.983 C 359.584 81.406,362.677 86.510,364.995 91.320 C 365.643 92.664,366.419 94.169,366.720 94.664 C 367.265 95.562,368.875 99.991,368.875 100.594 C 368.875 100.770,369.151 101.504,369.489 102.225 C 369.827 102.947,370.283 104.405,370.501 105.466 C 370.719 106.527,371.067 108.090,371.274 108.939 C 372.798 115.197,373.192 118.326,373.397 125.788 C 373.594 132.969,373.253 139.207,372.489 142.397 C 372.215 143.538,371.919 145.101,371.830 145.870 C 371.740 146.638,371.389 148.251,371.048 149.453 C 370.707 150.656,370.260 152.277,370.054 153.055 C 369.694 154.420,369.027 156.552,368.205 158.971 C 367.989 159.608,367.636 160.765,367.421 161.543 C 367.207 162.322,366.821 163.190,366.565 163.473 C 366.308 163.756,365.322 165.492,364.372 167.331 C 359.101 177.544,348.908 190.361,342.645 194.652 C 341.569 195.389,339.999 196.616,339.155 197.379 C 338.311 198.141,337.215 198.971,336.720 199.222 C 336.225 199.473,335.068 200.171,334.148 200.773 C 332.054 202.144,325.148 205.933,323.601 206.560 C 322.965 206.817,321.691 207.333,320.772 207.706 C 319.852 208.078,318.810 208.540,318.457 208.732 C 318.103 208.924,317.293 209.216,316.656 209.382 C 316.019 209.547,314.804 209.952,313.955 210.281 C 313.106 210.611,311.903 210.963,311.282 211.064 C 310.660 211.165,309.561 211.523,308.838 211.859 C 307.963 212.267,307.052 212.472,306.109 212.475 C 305.331 212.478,303.720 212.713,302.528 212.999 C 297.190 214.278,279.489 214.527,275.212 213.382 C 273.902 213.031,271.896 212.621,270.756 212.470 C 269.615 212.320,267.987 211.975,267.138 211.703 C 266.289 211.432,264.900 211.039,264.051 210.829 C 260.637 209.983,250.826 206.096,247.717 204.356 C 244.564 202.591,244.459 202.593,240.643 204.472 C 236.203 206.658,232.027 208.414,229.546 209.138 C 228.677 209.391,227.751 209.712,227.488 209.851 C 226.443 210.404,218.688 212.173,214.148 212.894 C 209.939 213.562,196.401 213.701,192.669 213.114 C 191.183 212.881,189.158 212.590,188.167 212.469 C 185.706 212.168,181.050 211.071,178.135 210.106 C 177.286 209.825,175.897 209.384,175.048 209.126 C 172.433 208.332,168.362 206.620,164.281 204.599 C 160.922 202.935,160.282 202.884,158.464 204.135 C 157.729 204.640,156.703 205.207,156.184 205.395 C 155.666 205.582,154.431 206.109,153.441 206.566 C 150.461 207.942,144.173 210.257,141.865 210.829 C 141.016 211.039,139.791 211.383,139.141 211.593 C 138.492 211.803,136.698 212.196,135.154 212.467 C 133.610 212.738,131.207 213.198,129.814 213.489 C 125.058 214.485,109.236 214.184,103.923 212.998 C 102.720 212.729,100.752 212.380,99.550 212.222 C 98.347 212.064,96.785 211.718,96.077 211.453 C 94.814 210.980,92.961 210.366,89.904 209.409 C 86.244 208.263,77.663 204.284,74.820 202.415 C 74.306 202.077,73.554 201.609,73.148 201.375 C 70.531 199.864,66.912 197.416,65.893 196.466 C 65.234 195.851,64.116 194.959,63.408 194.483 C 59.799 192.053,51.103 182.270,46.830 175.832 C 45.802 174.283,44.896 172.836,44.818 172.617 C 44.739 172.398,44.477 171.929,44.236 171.576 C 43.118 169.939,39.380 162.527,38.982 161.157 C 38.737 160.315,38.309 159.306,38.031 158.915 C 37.456 158.108,36.704 155.740,36.006 152.540 C 35.744 151.338,35.345 149.837,35.120 149.205 C 34.895 148.574,34.543 146.953,34.338 145.604 C 34.132 144.255,33.792 142.341,33.580 141.350 C 32.505 136.314,32.494 120.683,33.563 116.013 C 33.774 115.093,34.118 113.241,34.328 111.897 C 34.537 110.553,34.943 108.775,35.228 107.947 C 35.513 107.118,35.823 105.671,35.916 104.731 C 36.008 103.791,36.300 102.593,36.563 102.068 C 36.826 101.543,37.040 100.964,37.038 100.782 C 37.036 100.599,37.436 99.640,37.927 98.650 C 38.419 97.659,39.184 95.981,39.629 94.920 C 42.108 89.004,46.257 81.928,50.184 76.913 C 51.126 75.711,52.075 74.379,52.292 73.955 C 52.813 72.940,60.815 65.078,63.280 63.161 C 64.341 62.336,65.730 61.174,66.367 60.580 C 67.003 59.986,67.987 59.234,68.553 58.909 C 69.119 58.584,70.508 57.720,71.640 56.989 C 74.966 54.841,76.711 53.835,79.662 52.367 C 82.589 50.911,85.995 49.389,86.328 49.389 C 86.437 49.389,86.996 49.164,87.572 48.889 C 88.776 48.314,93.588 46.700,94.920 46.426 C 95.415 46.324,96.149 46.072,96.551 45.866 C 96.954 45.661,98.690 45.272,100.410 45.002 C 102.130 44.732,104.289 44.270,105.209 43.976 C 109.163 42.713,126.126 42.723,131.061 43.992 " stroke="none" fill="#f9f9f9" fill-rule="evenodd"></path><path id="path3" d="M110.740 43.222 C 108.051 43.375,106.374 43.604,105.209 43.976 C 104.289 44.270,102.130 44.732,100.410 45.002 C 98.690 45.272,96.954 45.661,96.551 45.866 C 96.149 46.072,95.415 46.324,94.920 46.426 C 93.588 46.700,88.776 48.314,87.572 48.889 C 86.996 49.164,86.437 49.389,86.328 49.389 C 85.995 49.389,82.589 50.911,79.662 52.367 C 76.711 53.835,74.966 54.841,71.640 56.989 C 70.508 57.720,69.119 58.584,68.553 58.909 C 67.987 59.234,67.003 59.986,66.367 60.580 C 65.730 61.174,64.341 62.336,63.280 63.161 C 60.815 65.078,52.813 72.940,52.292 73.955 C 52.075 74.379,51.126 75.711,50.184 76.913 C 46.257 81.928,42.108 89.004,39.629 94.920 C 39.184 95.981,38.419 97.659,37.927 98.650 C 37.436 99.640,37.036 100.599,37.038 100.782 C 37.040 100.964,36.826 101.543,36.563 102.068 C 36.300 102.593,36.008 103.791,35.916 104.731 C 35.823 105.671,35.513 107.118,35.228 107.947 C 34.943 108.775,34.537 110.553,34.328 111.897 C 34.118 113.241,33.774 115.093,33.563 116.013 C 32.494 120.683,32.505 136.314,33.580 141.350 C 33.792 142.341,34.132 144.255,34.338 145.604 C 34.543 146.953,34.895 148.574,35.120 149.205 C 35.345 149.837,35.744 151.338,36.006 152.540 C 36.704 155.740,37.456 158.108,38.031 158.915 C 38.309 159.306,38.737 160.315,38.982 161.157 C 39.380 162.527,43.118 169.939,44.236 171.576 C 44.477 171.929,44.739 172.398,44.818 172.617 C 45.732 175.172,53.091 184.508,58.453 189.917 C 60.471 191.952,62.701 194.006,63.408 194.483 C 64.116 194.959,65.234 195.851,65.893 196.466 C 66.912 197.416,70.531 199.864,73.148 201.375 C 73.554 201.609,74.306 202.077,74.820 202.415 C 77.663 204.284,86.244 208.263,89.904 209.409 C 92.961 210.366,94.814 210.980,96.077 211.453 C 96.785 211.718,98.347 212.064,99.550 212.222 C 100.752 212.380,102.720 212.729,103.923 212.998 C 109.236 214.184,125.058 214.485,129.814 213.489 C 131.207 213.198,133.610 212.738,135.154 212.467 C 136.698 212.196,138.492 211.803,139.141 211.593 C 139.791 211.383,141.016 211.039,141.865 210.829 C 144.173 210.257,150.461 207.942,153.441 206.566 C 154.431 206.109,155.666 205.582,156.184 205.395 C 156.703 205.207,157.729 204.640,158.464 204.135 C 160.282 202.884,160.922 202.935,164.281 204.599 C 168.362 206.620,172.433 208.332,175.048 209.126 C 175.897 209.384,177.286 209.825,178.135 210.106 C 181.050 211.071,185.706 212.168,188.167 212.469 C 189.158 212.590,191.183 212.881,192.669 213.114 C 196.401 213.701,209.939 213.562,214.148 212.894 C 218.688 212.173,226.443 210.404,227.488 209.851 C 227.751 209.712,228.677 209.391,229.546 209.138 C 232.027 208.414,236.203 206.658,240.643 204.472 C 244.459 202.593,244.564 202.591,247.717 204.356 C 250.826 206.096,260.637 209.983,264.051 210.829 C 264.900 211.039,266.289 211.432,267.138 211.703 C 267.987 211.975,269.615 212.320,270.756 212.470 C 271.896 212.621,273.902 213.031,275.212 213.382 C 279.489 214.527,297.190 214.278,302.528 212.999 C 303.720 212.713,305.331 212.478,306.109 212.475 C 307.052 212.472,307.963 212.267,308.838 211.859 C 309.561 211.523,310.660 211.165,311.282 211.064 C 311.903 210.963,313.106 210.611,313.955 210.281 C 314.804 209.952,316.019 209.547,316.656 209.382 C 317.293 209.216,318.103 208.924,318.457 208.732 C 318.810 208.540,319.852 208.078,320.772 207.706 C 321.691 207.333,322.965 206.817,323.601 206.560 C 325.148 205.933,332.054 202.144,334.148 200.773 C 335.068 200.171,336.225 199.473,336.720 199.222 C 337.215 198.971,338.311 198.141,339.155 197.379 C 339.999 196.616,341.569 195.389,342.645 194.652 C 346.625 191.925,355.229 182.238,359.453 175.728 C 362.001 171.802,362.539 170.883,364.372 167.331 C 365.322 165.492,366.308 163.756,366.565 163.473 C 366.821 163.190,367.207 162.322,367.421 161.543 C 367.636 160.765,367.989 159.608,368.205 158.971 C 369.027 156.552,369.694 154.420,370.054 153.055 C 370.260 152.277,370.707 150.656,371.048 149.453 C 371.389 148.251,371.740 146.638,371.830 145.870 C 371.919 145.101,372.215 143.538,372.489 142.397 C 373.253 139.207,373.594 132.969,373.397 125.788 C 373.192 118.326,372.798 115.197,371.274 108.939 C 371.067 108.090,370.719 106.527,370.501 105.466 C 370.283 104.405,369.827 102.947,369.489 102.225 C 369.151 101.504,368.875 100.770,368.875 100.594 C 368.875 99.991,367.265 95.562,366.720 94.664 C 366.419 94.169,365.643 92.664,364.995 91.320 C 362.677 86.510,359.584 81.406,356.913 77.983 C 355.511 76.185,354.385 74.593,353.792 73.569 C 353.351 72.807,343.761 63.616,342.251 62.508 C 341.402 61.886,339.955 60.722,339.035 59.923 C 338.116 59.124,336.958 58.265,336.463 58.014 C 335.968 57.763,334.926 57.130,334.148 56.607 C 333.370 56.084,332.386 55.479,331.961 55.262 C 331.537 55.045,330.322 54.367,329.260 53.755 C 326.968 52.434,322.109 50.113,319.753 49.213 C 316.126 47.828,312.346 46.562,310.997 46.280 C 310.219 46.118,309.177 45.782,308.682 45.533 C 308.186 45.284,306.866 44.997,305.747 44.894 C 304.628 44.791,302.776 44.423,301.631 44.076 C 297.129 42.710,279.295 42.563,275.195 43.858 C 274.108 44.201,272.137 44.656,270.814 44.869 C 269.492 45.082,267.892 45.440,267.260 45.665 C 266.627 45.890,265.415 46.233,264.566 46.428 C 262.736 46.847,258.820 48.181,257.346 48.888 C 256.771 49.163,256.177 49.389,256.025 49.389 C 255.638 49.389,252.568 50.769,247.203 53.356 C 244.140 54.832,244.804 54.920,239.386 52.321 C 236.849 51.103,234.184 49.895,233.464 49.635 C 228.526 47.856,225.958 47.019,224.051 46.565 C 222.849 46.279,220.997 45.810,219.936 45.523 C 218.875 45.235,217.138 44.897,216.077 44.771 C 215.016 44.644,213.280 44.334,212.219 44.081 C 209.365 43.402,195.261 43.402,192.412 44.082 C 191.350 44.335,189.672 44.639,188.682 44.757 C 187.691 44.876,184.855 45.499,182.379 46.142 C 176.867 47.573,176.515 47.684,170.932 49.755 C 170.084 50.070,167.500 51.232,165.192 52.338 C 160.461 54.604,160.138 54.633,158.071 52.991 C 157.537 52.566,156.983 52.219,156.840 52.219 C 156.697 52.219,155.162 51.582,153.429 50.804 C 151.696 50.026,150.153 49.389,150.000 49.389 C 149.847 49.389,149.112 49.109,148.366 48.766 C 146.875 48.081,144.440 47.244,142.251 46.666 C 141.473 46.460,139.852 46.012,138.650 45.671 C 137.447 45.329,135.884 44.976,135.177 44.885 C 134.469 44.794,132.617 44.393,131.061 43.992 C 127.797 43.153,118.270 42.792,110.740 43.222 M129.518 44.625 C 137.238 45.821,147.615 48.667,151.431 50.634 C 151.687 50.766,153.350 51.576,155.125 52.433 C 156.900 53.291,158.571 54.233,158.837 54.528 C 159.450 55.206,159.550 55.110,155.113 58.114 C 130.489 74.784,116.408 102.197,117.415 131.508 C 117.572 136.081,117.731 137.495,118.835 144.180 C 119.723 149.556,122.155 157.645,124.286 162.315 C 131.403 177.910,142.404 191.159,154.935 199.228 C 157.912 201.145,158.971 201.953,158.971 202.306 C 158.971 203.772,147.183 208.952,139.936 210.671 C 138.875 210.922,137.254 211.310,136.334 211.532 C 121.865 215.029,101.498 213.604,88.714 208.200 C 87.918 207.864,87.109 207.588,86.917 207.588 C 86.724 207.588,85.986 207.311,85.277 206.972 C 84.568 206.633,83.061 205.920,81.929 205.388 C 77.031 203.086,71.125 199.553,67.562 196.793 C 66.735 196.152,65.403 195.122,64.604 194.504 C 52.708 185.310,42.022 169.501,37.107 153.826 C 33.671 142.868,32.261 126.838,33.973 118.199 C 34.113 117.492,34.451 115.466,34.724 113.698 C 35.889 106.142,38.469 98.410,42.493 90.418 C 43.348 88.720,44.330 86.868,44.677 86.302 C 53.243 72.308,61.715 63.828,75.679 55.271 C 79.154 53.142,87.419 49.397,90.932 48.359 C 91.781 48.109,92.939 47.725,93.505 47.508 C 96.360 46.408,106.271 44.504,111.897 43.974 C 116.195 43.570,124.744 43.885,129.518 44.625 M295.949 44.358 C 297.363 44.556,299.852 44.903,301.479 45.131 C 304.651 45.574,310.310 46.848,312.412 47.592 C 313.119 47.843,314.392 48.281,315.241 48.566 C 319.983 50.158,319.794 50.078,325.659 52.967 C 343.867 61.936,357.424 76.332,366.134 95.949 C 367.417 98.838,369.484 104.885,369.782 106.624 C 369.879 107.190,370.227 108.637,370.555 109.839 C 370.883 111.042,371.225 112.720,371.316 113.569 C 371.407 114.418,371.731 116.502,372.036 118.199 C 372.518 120.879,372.592 122.253,372.598 128.617 C 372.605 136.328,372.656 135.776,371.069 145.080 C 370.308 149.538,367.417 159.057,365.943 161.955 C 365.735 162.365,365.133 163.627,364.607 164.759 C 362.829 168.582,360.497 172.631,357.546 177.017 C 353.928 182.395,345.764 191.162,341.093 194.686 C 339.749 195.700,338.000 197.021,337.206 197.622 C 335.747 198.726,333.668 200.077,331.068 201.610 C 329.195 202.714,320.051 207.225,319.228 207.450 C 318.875 207.547,317.891 207.895,317.042 208.224 C 303.006 213.662,284.860 214.889,270.096 211.398 C 268.894 211.113,267.158 210.726,266.238 210.537 C 265.318 210.347,264.103 209.997,263.537 209.759 C 262.971 209.520,261.814 209.118,260.965 208.865 C 257.430 207.812,256.237 207.306,249.234 203.881 C 246.460 202.525,244.120 201.415,244.032 201.415 C 243.719 201.415,238.965 198.158,235.973 195.893 C 232.622 193.356,224.089 185.048,222.226 182.508 C 221.603 181.659,220.590 180.338,219.974 179.572 C 218.888 178.221,216.065 174.008,214.981 172.119 C 212.989 168.650,212.130 166.978,210.080 162.572 C 208.204 158.543,205.449 149.807,204.726 145.595 C 204.593 144.817,204.256 142.841,203.977 141.205 C 202.887 134.799,202.725 124.516,203.623 118.714 C 203.820 117.441,204.163 115.183,204.385 113.698 C 206.104 102.216,212.795 86.870,220.088 77.685 C 220.706 76.907,221.801 75.518,222.521 74.598 C 225.695 70.547,230.506 65.834,235.498 61.886 C 237.803 60.063,244.078 55.820,244.469 55.820 C 244.633 55.820,245.170 55.595,245.663 55.321 C 254.465 50.418,266.271 46.189,273.698 45.278 C 274.759 45.148,276.669 44.866,277.942 44.652 C 281.309 44.086,281.522 44.073,287.717 44.034 C 291.357 44.011,294.294 44.127,295.949 44.358 " stroke="none" fill="#bcb3b3" fill-rule="evenodd"></path>
</g>
</svg>